<mxfile host="app.diagrams.net" agent="Mozilla/5.0 (Windows NT 10.0; Win64; x64; rv:135.0) Gecko/20100101 Firefox/135.0" version="26.0.14">
  <diagram name="PÃ¡gina-1" id="32TGYiiWbmlYyP5pAiCS">
    <mxGraphModel dx="1222" dy="709" grid="1" gridSize="10" guides="1" tooltips="1" connect="1" arrows="1" fold="1" page="1" pageScale="1" pageWidth="827" pageHeight="1169" math="0" shadow="0">
      <root>
        <mxCell id="0" />
        <mxCell id="1" parent="0" />
        <mxCell id="7ebIC9FxF_cOnvWXWvYN-8" value="Laravel" style="shape=image;html=1;verticalAlign=top;verticalLabelPosition=bottom;labelBackgroundColor=#ffffff;imageAspect=0;aspect=fixed;image=https://cdn1.iconfinder.com/data/icons/ionicons-fill-vol-2/512/logo-laravel-128.png" vertex="1" parent="1">
          <mxGeometry x="180" y="251" width="108" height="108" as="geometry" />
        </mxCell>
        <mxCell id="7ebIC9FxF_cOnvWXWvYN-17" style="edgeStyle=orthogonalEdgeStyle;rounded=0;orthogonalLoop=1;jettySize=auto;html=1;entryX=0;entryY=0.5;entryDx=0;entryDy=0;endArrow=none;startFill=0;" edge="1" parent="1" source="7ebIC9FxF_cOnvWXWvYN-9" target="7ebIC9FxF_cOnvWXWvYN-8">
          <mxGeometry relative="1" as="geometry" />
        </mxCell>
        <mxCell id="7ebIC9FxF_cOnvWXWvYN-9" value="&lt;div&gt;Cliente&lt;/div&gt;" style="fontColor=#0066CC;verticalAlign=top;verticalLabelPosition=bottom;labelPosition=center;align=center;html=1;outlineConnect=0;fillColor=#CCCCCC;strokeColor=#6881B3;gradientColor=none;gradientDirection=north;strokeWidth=2;shape=mxgraph.networks.pc;" vertex="1" parent="1">
          <mxGeometry x="30" y="270" width="100" height="70" as="geometry" />
        </mxCell>
        <mxCell id="7ebIC9FxF_cOnvWXWvYN-10" value="DynamoDB" style="outlineConnect=0;dashed=0;verticalLabelPosition=bottom;verticalAlign=top;align=center;html=1;shape=mxgraph.aws3.dynamo_db;fillColor=#2E73B8;gradientColor=none;" vertex="1" parent="1">
          <mxGeometry x="700" y="450" width="101" height="100" as="geometry" />
        </mxCell>
        <mxCell id="7ebIC9FxF_cOnvWXWvYN-13" value="LocalStack" style="image;html=1;image=img/lib/clip_art/computers/Server_128x128.png" vertex="1" parent="1">
          <mxGeometry x="881" y="450" width="100" height="100" as="geometry" />
        </mxCell>
        <mxCell id="7ebIC9FxF_cOnvWXWvYN-22" value="" style="edgeStyle=orthogonalEdgeStyle;rounded=0;orthogonalLoop=1;jettySize=auto;html=1;exitX=0.855;exitY=0.855;exitDx=0;exitDy=0;exitPerimeter=0;endArrow=none;startFill=0;" edge="1" parent="1" source="7ebIC9FxF_cOnvWXWvYN-19" target="7ebIC9FxF_cOnvWXWvYN-21">
          <mxGeometry relative="1" as="geometry" />
        </mxCell>
        <mxCell id="7ebIC9FxF_cOnvWXWvYN-24" value="" style="edgeStyle=orthogonalEdgeStyle;rounded=0;orthogonalLoop=1;jettySize=auto;html=1;exitX=0.855;exitY=0.145;exitDx=0;exitDy=0;exitPerimeter=0;endArrow=none;startFill=0;" edge="1" parent="1" source="7ebIC9FxF_cOnvWXWvYN-19" target="7ebIC9FxF_cOnvWXWvYN-23">
          <mxGeometry relative="1" as="geometry" />
        </mxCell>
        <mxCell id="7ebIC9FxF_cOnvWXWvYN-26" value="" style="edgeStyle=orthogonalEdgeStyle;rounded=0;orthogonalLoop=1;jettySize=auto;html=1;endArrow=none;startFill=0;" edge="1" parent="1" source="7ebIC9FxF_cOnvWXWvYN-19" target="7ebIC9FxF_cOnvWXWvYN-25">
          <mxGeometry relative="1" as="geometry" />
        </mxCell>
        <mxCell id="7ebIC9FxF_cOnvWXWvYN-19" value="&lt;div&gt;API&lt;/div&gt;" style="fillColor=#999999;verticalLabelPosition=bottom;sketch=0;html=1;strokeColor=#ffffff;verticalAlign=top;align=center;points=[[0.145,0.145,0],[0.5,0,0],[0.855,0.145,0],[1,0.5,0],[0.855,0.855,0],[0.5,1,0],[0.145,0.855,0],[0,0.5,0]];pointerEvents=1;shape=mxgraph.cisco_safe.compositeIcon;bgIcon=ellipse;resIcon=mxgraph.cisco_safe.capability.path_control;" vertex="1" parent="1">
          <mxGeometry x="340" y="271.75" width="70" height="66.5" as="geometry" />
        </mxCell>
        <mxCell id="7ebIC9FxF_cOnvWXWvYN-20" style="edgeStyle=orthogonalEdgeStyle;rounded=0;orthogonalLoop=1;jettySize=auto;html=1;entryX=0;entryY=0.5;entryDx=0;entryDy=0;entryPerimeter=0;endArrow=none;startFill=0;" edge="1" parent="1" source="7ebIC9FxF_cOnvWXWvYN-8" target="7ebIC9FxF_cOnvWXWvYN-19">
          <mxGeometry relative="1" as="geometry" />
        </mxCell>
        <mxCell id="7ebIC9FxF_cOnvWXWvYN-21" value="&lt;div&gt;/timeline/{userId}&lt;/div&gt;" style="whiteSpace=wrap;html=1;verticalAlign=top;fillColor=#999999;strokeColor=#ffffff;sketch=0;pointerEvents=1;" vertex="1" parent="1">
          <mxGeometry x="440" y="348" width="120" height="30" as="geometry" />
        </mxCell>
        <mxCell id="7ebIC9FxF_cOnvWXWvYN-34" value="" style="edgeStyle=orthogonalEdgeStyle;rounded=0;orthogonalLoop=1;jettySize=auto;html=1;endArrow=none;startFill=0;" edge="1" parent="1" source="7ebIC9FxF_cOnvWXWvYN-23" target="7ebIC9FxF_cOnvWXWvYN-33">
          <mxGeometry relative="1" as="geometry" />
        </mxCell>
        <mxCell id="7ebIC9FxF_cOnvWXWvYN-23" value="/follow" style="whiteSpace=wrap;html=1;verticalAlign=top;fillColor=#999999;strokeColor=#ffffff;sketch=0;pointerEvents=1;" vertex="1" parent="1">
          <mxGeometry x="440" y="230.5" width="120" height="29.5" as="geometry" />
        </mxCell>
        <mxCell id="7ebIC9FxF_cOnvWXWvYN-44" style="edgeStyle=orthogonalEdgeStyle;rounded=0;orthogonalLoop=1;jettySize=auto;html=1;endArrow=none;startFill=0;" edge="1" parent="1" source="7ebIC9FxF_cOnvWXWvYN-25" target="7ebIC9FxF_cOnvWXWvYN-40">
          <mxGeometry relative="1" as="geometry" />
        </mxCell>
        <mxCell id="7ebIC9FxF_cOnvWXWvYN-25" value="/tweet" style="whiteSpace=wrap;html=1;verticalAlign=top;fillColor=#999999;strokeColor=#ffffff;sketch=0;pointerEvents=1;" vertex="1" parent="1">
          <mxGeometry x="475" y="291.5" width="115" height="27.5" as="geometry" />
        </mxCell>
        <mxCell id="7ebIC9FxF_cOnvWXWvYN-32" style="edgeStyle=orthogonalEdgeStyle;rounded=0;orthogonalLoop=1;jettySize=auto;html=1;entryX=0.5;entryY=0;entryDx=0;entryDy=0;endArrow=none;startFill=0;" edge="1" parent="1" source="7ebIC9FxF_cOnvWXWvYN-29" target="7ebIC9FxF_cOnvWXWvYN-13">
          <mxGeometry relative="1" as="geometry" />
        </mxCell>
        <mxCell id="7ebIC9FxF_cOnvWXWvYN-29" value="DynamoDbService" style="shape=cube;whiteSpace=wrap;html=1;boundedLbl=1;backgroundOutline=1;darkOpacity=0.05;darkOpacity2=0.1;" vertex="1" parent="1">
          <mxGeometry x="860" y="272.75" width="140" height="110" as="geometry" />
        </mxCell>
        <mxCell id="7ebIC9FxF_cOnvWXWvYN-30" style="edgeStyle=orthogonalEdgeStyle;rounded=0;orthogonalLoop=1;jettySize=auto;html=1;entryX=1;entryY=0.5;entryDx=0;entryDy=0;entryPerimeter=0;endArrow=none;startFill=0;" edge="1" parent="1" source="7ebIC9FxF_cOnvWXWvYN-13" target="7ebIC9FxF_cOnvWXWvYN-10">
          <mxGeometry relative="1" as="geometry" />
        </mxCell>
        <mxCell id="7ebIC9FxF_cOnvWXWvYN-33" value="FollowController" style="shape=step;perimeter=stepPerimeter;whiteSpace=wrap;html=1;fixedSize=1;verticalAlign=top;fillColor=#999999;strokeColor=#ffffff;sketch=0;pointerEvents=1;" vertex="1" parent="1">
          <mxGeometry x="590" y="229.87" width="140" height="32.13" as="geometry" />
        </mxCell>
        <mxCell id="7ebIC9FxF_cOnvWXWvYN-40" value="TweetController" style="shape=step;perimeter=stepPerimeter;whiteSpace=wrap;html=1;fixedSize=1;verticalAlign=top;fillColor=#999999;strokeColor=#ffffff;sketch=0;pointerEvents=1;" vertex="1" parent="1">
          <mxGeometry x="620" y="288.5" width="140" height="32.13" as="geometry" />
        </mxCell>
        <mxCell id="7ebIC9FxF_cOnvWXWvYN-41" value="" style="edgeStyle=orthogonalEdgeStyle;rounded=0;orthogonalLoop=1;jettySize=auto;html=1;exitX=1;exitY=0.5;exitDx=0;exitDy=0;endArrow=none;startFill=0;" edge="1" parent="1" target="7ebIC9FxF_cOnvWXWvYN-42" source="7ebIC9FxF_cOnvWXWvYN-21">
          <mxGeometry relative="1" as="geometry">
            <mxPoint x="570" y="365.13" as="sourcePoint" />
          </mxGeometry>
        </mxCell>
        <mxCell id="7ebIC9FxF_cOnvWXWvYN-42" value="TimelineController" style="shape=step;perimeter=stepPerimeter;whiteSpace=wrap;html=1;fixedSize=1;verticalAlign=top;fillColor=#999999;strokeColor=#ffffff;sketch=0;pointerEvents=1;" vertex="1" parent="1">
          <mxGeometry x="590" y="347" width="140" height="32.13" as="geometry" />
        </mxCell>
        <mxCell id="7ebIC9FxF_cOnvWXWvYN-45" style="edgeStyle=orthogonalEdgeStyle;rounded=0;orthogonalLoop=1;jettySize=auto;html=1;entryX=0;entryY=0;entryDx=60;entryDy=0;entryPerimeter=0;endArrow=none;startFill=0;" edge="1" parent="1" source="7ebIC9FxF_cOnvWXWvYN-33" target="7ebIC9FxF_cOnvWXWvYN-29">
          <mxGeometry relative="1" as="geometry" />
        </mxCell>
        <mxCell id="7ebIC9FxF_cOnvWXWvYN-46" style="edgeStyle=orthogonalEdgeStyle;rounded=0;orthogonalLoop=1;jettySize=auto;html=1;entryX=0;entryY=0;entryDx=0;entryDy=45;entryPerimeter=0;endArrow=none;startFill=0;" edge="1" parent="1" source="7ebIC9FxF_cOnvWXWvYN-40" target="7ebIC9FxF_cOnvWXWvYN-29">
          <mxGeometry relative="1" as="geometry">
            <mxPoint x="850" y="310" as="targetPoint" />
          </mxGeometry>
        </mxCell>
        <mxCell id="7ebIC9FxF_cOnvWXWvYN-47" style="edgeStyle=orthogonalEdgeStyle;rounded=0;orthogonalLoop=1;jettySize=auto;html=1;entryX=0;entryY=0;entryDx=0;entryDy=90;entryPerimeter=0;endArrow=none;startFill=0;" edge="1" parent="1" source="7ebIC9FxF_cOnvWXWvYN-42" target="7ebIC9FxF_cOnvWXWvYN-29">
          <mxGeometry relative="1" as="geometry">
            <mxPoint x="840" y="316" as="targetPoint" />
          </mxGeometry>
        </mxCell>
      </root>
    </mxGraphModel>
  </diagram>
</mxfile>
